<?xml version="1.0" standalone="no"?>
<!DOCTYPE svg PUBLIC "-//W3C//DTD SVG 20010904//EN"
 "http://www.w3.org/TR/2001/REC-SVG-20010904/DTD/svg10.dtd">
<svg version="1.0" xmlns="http://www.w3.org/2000/svg"
 width="1100.000000pt" height="1100.000000pt" viewBox="0 0 1100.000000 1100.000000"
 preserveAspectRatio="xMidYMid meet">
<metadata>
Created by potrace 1.11, written by Peter Selinger 2001-2013
</metadata>
<g transform="translate(0.000000,1100.000000) scale(0.100000,-0.100000)"
fill="#000000" stroke="none">
<path d="M5244 10484 c-111 -16 -273 -58 -368 -94 -94 -37 -280 -129 -321
-160 -5 -4 -35 -21 -65 -37 -57 -31 -756 -435 -915 -528 -49 -29 -103 -60
-120 -69 -16 -9 -37 -21 -45 -26 -26 -17 -483 -280 -486 -280 -2 0 -37 -20
-77 -45 -41 -25 -77 -45 -80 -45 -4 0 -23 -12 -44 -26 -21 -14 -47 -30 -58
-35 -11 -5 -27 -13 -35 -19 -21 -13 -130 -76 -545 -316 -198 -114 -386 -225
-418 -246 -93 -63 -228 -180 -298 -260 -96 -108 -209 -263 -209 -287 0 -5 -3
-11 -8 -13 -22 -10 -127 -251 -163 -377 -23 -80 -28 -103 -54 -251 -4 -19 -8
-143 -11 -275 -12 -682 -10 -659 -79 -815 -60 -134 -115 -203 -303 -372 -81
-73 -152 -137 -158 -143 -6 -5 -49 -44 -94 -85 -201 -181 -203 -183 -185 -196
8 -6 39 -34 68 -60 29 -27 89 -81 133 -120 43 -40 91 -83 105 -95 14 -13 61
-55 105 -94 192 -170 265 -258 329 -398 69 -151 69 -152 79 -797 4 -264 12
-338 51 -490 95 -373 321 -710 633 -944 64 -49 359 -228 497 -302 11 -6 56
-32 100 -58 44 -27 105 -62 135 -79 30 -17 165 -94 300 -172 135 -78 396 -229
580 -335 184 -106 384 -222 443 -257 60 -34 111 -63 115 -63 3 0 13 -6 21 -14
9 -7 48 -30 86 -51 67 -37 119 -66 160 -92 11 -7 36 -21 55 -31 19 -10 76 -43
125 -72 50 -29 108 -63 130 -75 22 -13 81 -47 130 -76 320 -187 522 -263 783
-297 73 -9 350 -9 422 0 195 26 381 83 550 168 76 38 463 257 530 300 8 5 44
26 80 46 36 21 161 93 278 161 117 67 232 134 255 147 23 13 173 99 332 191
160 92 304 176 320 185 17 9 86 50 155 90 69 40 150 86 180 103 30 16 62 36
71 43 8 8 18 14 21 14 3 0 61 32 129 71 222 128 443 256 479 276 256 145 416
270 565 443 39 46 135 178 135 187 0 3 6 14 14 22 56 62 177 355 211 510 3 11
7 29 9 38 29 137 35 223 36 608 1 187 6 363 11 390 6 28 12 59 14 70 10 49 48
144 81 204 62 112 126 184 297 334 17 14 72 64 191 172 6 6 56 51 111 100 55
50 106 96 114 103 10 9 11 16 4 20 -10 7 -65 55 -242 217 -76 69 -104 93 -186
167 -215 192 -280 276 -345 452 -42 110 -49 185 -50 526 -1 434 -6 500 -52
685 -33 137 -52 188 -122 335 -145 303 -373 552 -667 727 -72 43 -1006 583
-1109 641 -19 10 -177 102 -350 202 -173 101 -340 197 -370 213 -30 17 -66 37
-80 46 -53 34 -65 41 -79 48 -8 3 -90 51 -183 105 -93 54 -173 98 -178 98 -5
0 -10 3 -12 8 -1 4 -19 15 -38 26 -31 17 -235 134 -308 177 -332 197 -545 276
-822 308 -103 12 -328 10 -426 -5z m416 -568 c14 -3 39 -8 55 -11 145 -27 227
-66 615 -290 295 -170 616 -356 685 -395 17 -10 161 -93 320 -185 160 -92 362
-209 450 -260 88 -51 333 -192 545 -315 212 -122 401 -231 420 -242 234 -133
339 -211 436 -324 104 -122 171 -238 222 -389 52 -152 60 -232 61 -620 1 -192
4 -368 6 -390 12 -105 17 -132 41 -222 52 -200 131 -359 274 -548 8 -11 64
-68 124 -127 60 -60 105 -108 100 -108 -10 0 -158 -142 -206 -198 -160 -184
-295 -484 -323 -712 -3 -25 -7 -56 -10 -69 -2 -13 -5 -191 -6 -395 -1 -346 -3
-379 -24 -481 -24 -113 -56 -208 -102 -298 -70 -140 -202 -297 -323 -387 -58
-43 -592 -360 -606 -360 -3 0 -17 -8 -32 -19 -21 -15 -426 -249 -602 -349 -19
-11 -177 -102 -350 -202 -173 -100 -376 -217 -450 -260 -74 -43 -247 -143
-385 -222 -692 -400 -683 -396 -844 -434 -100 -24 -146 -28 -276 -28 -240 -1
-389 44 -645 194 -69 40 -141 82 -160 93 -111 62 -583 335 -625 360 -27 17
-59 35 -70 41 -22 12 -541 312 -565 327 -8 5 -82 47 -165 94 -82 47 -157 89
-165 95 -17 11 -111 65 -155 90 -16 9 -101 58 -188 108 -88 51 -163 92 -168
92 -5 0 -9 5 -9 10 0 6 -4 10 -10 10 -5 0 -47 22 -92 49 -46 27 -101 58 -122
70 -151 85 -358 210 -396 239 -25 20 -80 71 -122 113 -157 159 -263 359 -303
571 -23 122 -24 151 -25 523 -2 357 -9 444 -50 590 -71 255 -194 460 -392 655
-50 50 -96 90 -101 90 -6 0 42 51 104 113 150 147 263 311 329 477 12 30 25
62 30 71 8 16 54 198 66 259 6 37 12 217 18 630 2 140 7 269 10 285 19 89 50
194 72 249 23 57 109 215 123 226 4 3 14 17 23 31 67 106 231 240 433 355 77
44 331 191 565 326 234 135 441 255 460 266 19 10 76 43 125 72 50 29 135 79
190 110 55 31 172 99 260 150 88 51 174 100 190 110 17 9 181 104 365 210 184
106 344 198 355 204 11 6 27 16 35 22 8 6 35 23 60 36 25 14 86 48 136 76 146
82 269 125 454 155 31 5 276 0 310 -7z"/>
<path d="M5145 8049 c-310 -70 -531 -346 -520 -652 2 -32 -1 -44 -9 -40 -6 4
-110 80 -231 169 -235 173 -307 215 -401 237 -58 14 -179 15 -239 2 -189 -40
-343 -171 -421 -360 l-29 -70 -3 -1813 c-2 -1917 -4 -1834 40 -1952 40 -107
155 -230 270 -288 177 -89 393 -80 553 22 44 27 108 74 395 287 36 27 67 49
70 49 3 0 6 -34 7 -76 5 -163 77 -332 192 -444 198 -194 502 -241 740 -115 36
20 203 137 371 261 168 124 314 232 325 240 11 8 88 65 172 127 83 61 303 224
490 361 186 137 388 286 448 331 289 214 413 305 840 620 253 187 470 350 482
365 93 105 90 279 -5 378 -20 21 -113 95 -207 163 -285 210 -419 309 -445 329
-26 19 -270 199 -305 225 -12 8 -96 70 -187 137 -91 68 -264 195 -383 283
-189 139 -539 397 -660 487 -77 57 -390 288 -414 305 -13 10 -125 93 -249 184
-243 180 -298 212 -405 241 -76 19 -211 23 -282 7z m323 -689 c180 -132 490
-361 533 -393 73 -54 364 -268 644 -475 176 -130 379 -279 450 -332 108 -80
473 -349 824 -608 69 -51 73 -56 55 -68 -10 -8 -28 -20 -39 -28 -20 -15 -827
-610 -875 -646 -14 -10 -59 -44 -100 -74 -41 -30 -79 -59 -85 -63 -5 -5 -89
-66 -185 -136 -96 -71 -186 -137 -200 -147 -14 -11 -92 -69 -175 -129 -82 -61
-244 -181 -360 -266 -115 -86 -313 -232 -440 -325 -126 -94 -236 -168 -243
-165 -8 3 -20 5 -28 5 -7 0 -21 12 -31 27 -15 23 -18 56 -18 272 -1 148 3 251
9 259 5 7 136 106 290 220 155 113 286 211 293 217 6 5 28 21 48 35 19 14 81
59 138 101 56 42 311 231 567 419 587 432 589 434 584 441 -2 4 -165 125 -361
270 -197 145 -362 267 -368 272 -5 4 -33 25 -60 45 -137 100 -386 284 -459
337 -44 33 -211 156 -371 274 -159 117 -295 219 -300 226 -8 9 -13 473 -6 517
3 17 47 48 69 48 15 0 90 -49 200 -130z"/>
</g>
</svg>
