<?xml version="1.0" encoding="UTF-8" standalone="no"?>
<svg width="188px" height="174px" viewBox="0 0 188 174" version="1.1" xmlns="http://www.w3.org/2000/svg" xmlns:xlink="http://www.w3.org/1999/xlink">
    <!-- Generator: Sketch 42 (36781) - http://www.bohemiancoding.com/sketch -->
    <title>logo</title>
    <desc>Created with Sketch.</desc>
    <defs>
        <linearGradient x1="50%" y1="0%" x2="50%" y2="100%" id="linearGradient-1">
            <stop stop-color="#113979" offset="0%"></stop>
            <stop stop-color="#082148" offset="100%"></stop>
        </linearGradient>
    </defs>
    <g id="UI" stroke="none" stroke-width="1" fill="none" fill-rule="evenodd">
        <g id="uc05_course_details" transform="translate(-734.000000, -140.000000)" fill-rule="nonzero" fill="url(#linearGradient-1)">
            <g id="logo" transform="translate(734.000000, 140.000000)">
                <path d="M93.908225,9.9 C97.3817128,9.9 100.855201,10.76625 103.832476,12.49875 L153.453731,41.085 C159.532335,44.55 163.377982,51.2325 163.377982,58.28625 L163.377982,67.32 C163.377982,74.37375 166.355257,81.05625 171.565489,85.75875 L172.930073,86.99625 L171.565489,88.23375 C166.355257,92.93625 163.377982,99.61875 163.377982,106.6725 L163.377982,115.5825 C163.377982,122.63625 159.532335,129.195 153.453731,132.78375 L103.832476,161.37 C100.855201,163.1025 97.3817128,163.96875 93.908225,163.96875 C90.4347371,163.96875 86.9612493,163.1025 83.983974,161.37 L34.3627191,132.78375 C28.2841153,129.31875 24.4384681,122.63625 24.4384681,115.5825 L24.4384681,106.6725 C24.4384681,99.61875 21.4611928,92.93625 16.250961,88.23375 L14.8863765,86.99625 L16.250961,85.75875 C21.4611928,81.05625 24.4384681,74.37375 24.4384681,67.32 L24.4384681,58.28625 C24.4384681,51.2325 28.2841153,44.67375 34.3627191,41.085 L83.983974,12.49875 C86.9612493,10.76625 90.4347371,9.9 93.908225,9.9 L93.908225,9.9 Z M93.908225,0 C88.8220464,0 83.6118146,1.36125 79.0218485,3.96 L29.4005936,32.54625 C20.2206614,37.8675 14.5142171,47.64375 14.5142171,58.28625 L14.5142171,67.32 C14.5142171,71.5275 12.7774731,75.4875 9.55209158,78.33375 L0,86.8725 L9.55209158,95.41125 C12.65342,98.2575 14.5142171,102.2175 14.5142171,106.425 L14.5142171,115.335 C14.5142171,125.9775 20.2206614,135.75375 29.4005936,141.075 L79.0218485,169.66125 C83.6118146,172.26 88.8220464,173.62125 93.908225,173.62125 C98.9944036,173.62125 104.204635,172.26 108.794601,169.66125 L158.415856,141.075 C167.595789,135.75375 173.302233,125.9775 173.302233,115.335 L173.302233,106.425 C173.302233,102.2175 175.038977,98.2575 178.264358,95.41125 L187.81645,86.8725 L178.264358,78.33375 C175.16303,75.4875 173.302233,71.5275 173.302233,67.32 L173.302233,58.28625 C173.302233,47.64375 167.595789,37.8675 158.415856,32.54625 L108.794601,3.96 C104.204635,1.36125 98.9944036,0 93.908225,0 L93.908225,0 Z" id="Shape"></path>
                <path d="M148.987818,82.9125 L96.7614471,44.55 C94.6525438,43.065 92.4195873,42.3225 90.1866309,42.3225 C84.3561334,42.3225 78.8977954,47.025 78.8977954,53.7075 L78.8977954,54.6975 L71.4546071,49.12875 C64.8797908,44.3025 55.5758055,49.005 55.5758055,57.29625 L55.5758055,116.325 C55.5758055,124.61625 64.8797908,129.31875 71.4546071,124.4925 L78.8977954,118.92375 L78.8977954,120.0375 C78.8977954,126.72 84.3561334,131.4225 90.1866309,131.4225 C92.4195873,131.4225 94.6525438,130.68 96.7614471,129.195 L148.863765,90.8325 C151.592934,88.8525 151.592934,84.8925 148.987818,82.9125 Z M90.9309497,121.275 C90.5587903,121.5225 90.4347371,121.5225 90.310684,121.5225 C90.310684,121.5225 88.9460995,121.39875 88.9460995,120.0375 L88.9460995,111.74625 L122.688553,86.8725 L88.9460995,62.1225 L88.9460995,53.83125 C88.9460995,52.47 90.310684,52.34625 90.310684,52.34625 C90.4347371,52.34625 90.6828434,52.34625 90.9309497,52.59375 L137.698982,86.99625 L90.9309497,121.275 Z" id="Shape"></path>
            </g>
        </g>
    </g>
</svg>