<?xml version="1.0" encoding="UTF-8" standalone="no"?>
<svg width="231px" height="56px" viewBox="0 0 231 56" version="1.1" xmlns="http://www.w3.org/2000/svg" xmlns:xlink="http://www.w3.org/1999/xlink">
    <!-- Generator: Sketch 42 (36781) - http://www.bohemiancoding.com/sketch -->
    <title>Logo3-08</title>
    <desc>Created with Sketch.</desc>
    <defs>
        <linearGradient x1="0%" y1="50.0270848%" x2="99.9559445%" y2="50.0270848%" id="linearGradient-1">
            <stop stop-color="#00E7B7" offset="0%"></stop>
            <stop stop-color="#17AFD2" offset="100%"></stop>
        </linearGradient>
        <linearGradient x1="0.0809234979%" y1="50.0268056%" x2="100.022744%" y2="50.0268056%" id="linearGradient-2">
            <stop stop-color="#00E7B7" offset="0%"></stop>
            <stop stop-color="#17AFD2" offset="100%"></stop>
        </linearGradient>
    </defs>
    <g id="Symbols" stroke="none" stroke-width="1" fill="none" fill-rule="evenodd">
        <g id="header" transform="translate(-30.000000, -12.000000)" fill-rule="nonzero">
            <g id="Logo3-08">
                <g transform="translate(30.000000, 12.000000)">
                    <g id="Layer_3" transform="translate(0.000000, -0.000000)">
                        <g id="Group">
                            <path d="M30.1494828,3.1862069 C31.2646552,3.1862069 32.3798276,3.465 33.3356897,4.02258621 L49.2667241,13.2227586 C51.2182759,14.337931 52.452931,16.4886207 52.452931,18.7587931 L52.452931,21.6662069 C52.452931,23.9363793 53.4087931,26.087069 55.0815517,27.6005172 L55.5196552,27.9987931 L55.0815517,28.397069 C53.4087931,29.9105172 52.452931,32.0612069 52.452931,34.3313793 L52.452931,37.1989655 C52.452931,39.4691379 51.2182759,41.58 49.2667241,42.735 L33.3356897,51.9351724 C32.3798276,52.4927586 31.2646552,52.7715517 30.1494828,52.7715517 C29.0343103,52.7715517 27.9191379,52.4927586 26.9632759,51.9351724 L11.0322414,42.735 C9.08068966,41.6198276 7.84603448,39.4691379 7.84603448,37.1989655 L7.84603448,34.3313793 C7.84603448,32.0612069 6.89017241,29.9105172 5.21741379,28.397069 L4.77931034,27.9987931 L5.21741379,27.6005172 C6.89017241,26.087069 7.84603448,23.9363793 7.84603448,21.6662069 L7.84603448,18.7587931 C7.84603448,16.4886207 9.08068966,14.3777586 11.0322414,13.2227586 L26.9632759,4.02258621 C27.9191379,3.465 29.0343103,3.1862069 30.1494828,3.1862069 L30.1494828,3.1862069 Z M30.1494828,0 C28.5165517,0 26.8437931,0.438103448 25.3701724,1.27448276 L9.43913793,10.4746552 C6.49189655,12.1872414 4.65982759,15.3336207 4.65982759,18.7587931 L4.65982759,21.6662069 C4.65982759,23.0203448 4.10224138,24.2948276 3.06672414,25.2108621 L0,27.9589655 L3.06672414,30.707069 C4.06241379,31.6231034 4.65982759,32.8975862 4.65982759,34.2517241 L4.65982759,37.1193103 C4.65982759,40.5444828 6.49189655,43.6908621 9.43913793,45.4034483 L25.3701724,54.6036207 C26.8437931,55.44 28.5165517,55.8781034 30.1494828,55.8781034 C31.7824138,55.8781034 33.4551724,55.44 34.9287931,54.6036207 L50.8598276,45.4034483 C53.807069,43.6908621 55.6391379,40.5444828 55.6391379,37.1193103 L55.6391379,34.2517241 C55.6391379,32.8975862 56.1967241,31.6231034 57.2322414,30.707069 L60.2989655,27.9589655 L57.2322414,25.2108621 C56.2365517,24.2948276 55.6391379,23.0203448 55.6391379,21.6662069 L55.6391379,18.7587931 C55.6391379,15.3336207 53.807069,12.1872414 50.8598276,10.4746552 L34.9287931,1.27448276 C33.4551724,0.438103448 31.7824138,0 30.1494828,0 L30.1494828,0 Z" id="Shape" fill="url(#linearGradient-1)"></path>
                            <path d="M47.832931,26.6844828 L31.0655172,14.337931 C30.3884483,13.86 29.6715517,13.6210345 28.9546552,13.6210345 C27.0827586,13.6210345 25.3303448,15.1344828 25.3303448,17.2851724 L25.3303448,17.6037931 L22.9406897,15.8115517 C20.8298276,14.2582759 17.8427586,15.7717241 17.8427586,18.4401724 L17.8427586,37.437931 C17.8427586,40.1063793 20.8298276,41.6198276 22.9406897,40.0665517 L25.3303448,38.2743103 L25.3303448,38.6327586 C25.3303448,40.7834483 27.0827586,42.2968966 28.9546552,42.2968966 C29.6715517,42.2968966 30.3884483,42.057931 31.0655172,41.58 L47.7931034,29.2334483 C48.6693103,28.5962069 48.6693103,27.3217241 47.832931,26.6844828 Z M29.1936207,39.0310345 C29.0741379,39.1106897 29.0343103,39.1106897 28.9944828,39.1106897 C28.9944828,39.1106897 28.5563793,39.0708621 28.5563793,38.6327586 L28.5563793,35.9643103 L39.3894828,27.9589655 L28.5563793,19.9934483 L28.5563793,17.325 C28.5563793,16.8868966 28.9944828,16.847069 28.9944828,16.847069 C29.0343103,16.847069 29.1139655,16.847069 29.1936207,16.9267241 L44.2086207,27.9987931 L29.1936207,39.0310345 Z" id="Shape" fill="url(#linearGradient-2)"></path>
                        </g>
                        <g id="Group" transform="translate(70.893103, 17.922414)" fill="#11FFCE">
                            <path d="M11.7491379,2.74810345 L11.7491379,15.3336207 C11.7491379,15.5725862 11.5898276,15.7318966 11.3508621,15.7318966 L8.80189655,15.7318966 C8.68241379,15.7318966 8.52310345,15.6522414 8.48327586,15.5327586 L2.78793103,6.37241379 L3.02689655,10.1560345 L3.02689655,15.3734483 C3.02689655,15.6124138 2.86758621,15.7717241 2.62862069,15.7717241 L0.677068966,15.7717241 C0.438103448,15.7717241 0.278793103,15.6124138 0.278793103,15.3734483 L0.278793103,2.74810345 C0.278793103,2.50913793 0.438103448,2.34982759 0.677068966,2.34982759 L3.1862069,2.34982759 C3.30568966,2.34982759 3.465,2.42948276 3.50482759,2.54896552 L9.20017241,11.7093103 L8.9612069,7.92568966 L8.9612069,2.74810345 C8.9612069,2.50913793 9.12051724,2.34982759 9.35948276,2.34982759 L11.3110345,2.34982759 C11.55,2.34982759 11.7491379,2.54896552 11.7491379,2.74810345 Z" id="Shape"></path>
                            <path d="M25.2506897,5.61568966 L25.2506897,15.3336207 C25.2506897,15.5725862 25.0913793,15.7318966 24.8524138,15.7318966 L22.9008621,15.7318966 C22.6618966,15.7318966 22.5025862,15.5725862 22.5025862,15.3336207 L22.5025862,14.337931 C21.7856897,15.3336207 20.6705172,15.9708621 19.1968966,15.9708621 C16.4487931,15.9708621 14.4175862,13.7006897 14.4175862,10.4746552 C14.4175862,7.2087931 16.4886207,4.97844828 19.1968966,4.97844828 C20.6705172,4.97844828 21.7856897,5.65551724 22.5424138,6.69103448 L22.5424138,5.61568966 C22.5424138,5.37672414 22.7017241,5.21741379 22.9406897,5.21741379 L24.8922414,5.21741379 C25.0913793,5.21741379 25.2506897,5.41655172 25.2506897,5.61568966 Z M22.5424138,10.4746552 C22.5424138,8.76206897 21.3874138,7.60706897 19.8341379,7.60706897 C18.2808621,7.60706897 17.1656897,8.76206897 17.1656897,10.4746552 C17.1656897,12.227069 18.3206897,13.3422414 19.8341379,13.3422414 C21.3475862,13.382069 22.5424138,12.227069 22.5424138,10.4746552 Z" id="Shape"></path>
                            <path d="M36.1236207,14.8556897 C36.1634483,15.015 36.0837931,15.2141379 35.9244828,15.2937931 C35.2872414,15.6522414 34.1322414,15.9708621 33.0568966,15.9708621 C30.9460345,15.9708621 29.1139655,14.6963793 29.1139655,11.6694828 L29.1139655,7.8062069 L27.6403448,7.8062069 C27.4013793,7.8062069 27.242069,7.64689655 27.242069,7.40793103 L27.242069,5.61568966 C27.242069,5.37672414 27.4013793,5.21741379 27.6403448,5.21741379 L29.1139655,5.21741379 L29.1139655,2.74810345 C29.1139655,2.50913793 29.2732759,2.34982759 29.5122414,2.34982759 L31.4637931,2.34982759 C31.7027586,2.34982759 31.862069,2.50913793 31.862069,2.74810345 L31.862069,5.21741379 L35.3668966,5.21741379 C35.6058621,5.21741379 35.7651724,5.37672414 35.7651724,5.61568966 L35.7651724,7.40793103 C35.7651724,7.64689655 35.6058621,7.8062069 35.3668966,7.8062069 L31.862069,7.8062069 L31.862069,11.55 C31.862069,12.7846552 32.4594828,13.4617241 33.5348276,13.4617241 C34.0525862,13.4617241 34.65,13.3024138 35.327069,13.1032759 C35.5660345,13.0236207 35.805,13.182931 35.8448276,13.382069 L36.1236207,14.8556897 Z" id="Shape"></path>
                            <path d="M41.5401724,1.99137931 C41.5401724,2.94724138 40.8232759,3.62431034 39.8275862,3.62431034 C38.8717241,3.62431034 38.115,2.94724138 38.115,1.99137931 C38.115,1.03551724 38.8717241,0.398275862 39.8275862,0.398275862 C40.8232759,0.358448276 41.5401724,1.03551724 41.5401724,1.99137931 Z M38.8318966,5.21741379 L40.7834483,5.21741379 C41.0224138,5.21741379 41.1817241,5.37672414 41.1817241,5.61568966 L41.1817241,15.3336207 C41.1817241,15.5725862 41.0224138,15.7318966 40.7834483,15.7318966 L38.8318966,15.7318966 C38.592931,15.7318966 38.4336207,15.5725862 38.4336207,15.3336207 L38.4336207,5.61568966 C38.4336207,5.41655172 38.6327586,5.21741379 38.8318966,5.21741379 Z" id="Shape"></path>
                            <path d="M53.4884483,5.775 L50.1827586,15.492931 C50.142931,15.6522414 49.9836207,15.7717241 49.8243103,15.7717241 L47.1160345,15.7717241 C46.9567241,15.7717241 46.7974138,15.6522414 46.7575862,15.492931 L43.412069,5.775 C43.3324138,5.53603448 43.5315517,5.25724138 43.7705172,5.25724138 L45.8415517,5.25724138 C46.0008621,5.25724138 46.1601724,5.37672414 46.2398276,5.53603448 L48.4701724,12.8244828 L50.7403448,5.53603448 C50.7801724,5.37672414 50.9394828,5.25724138 51.1386207,5.25724138 L53.2096552,5.25724138 C53.4087931,5.21741379 53.607931,5.4962069 53.4884483,5.775 Z" id="Shape"></path>
                            <path d="M65.2774138,11.1915517 L57.5508621,11.1915517 C57.7101724,12.8643103 58.8651724,13.7006897 60.2989655,13.7006897 C61.2548276,13.7006897 62.1310345,13.3024138 62.5293103,12.5855172 C62.6089655,12.4660345 62.7284483,12.3863793 62.847931,12.3863793 L64.9189655,12.3863793 C65.1977586,12.3863793 65.357069,12.6651724 65.2774138,12.9041379 C64.3613793,15.015 62.4098276,15.9708621 60.3387931,15.9708621 C57.0331034,15.9708621 54.8027586,13.6210345 54.8027586,10.5144828 C54.8027586,7.36810345 57.072931,5.01827586 60.2989655,5.01827586 C63.6444828,5.01827586 65.7951724,7.56724138 65.6756897,10.872931 C65.6358621,11.0322414 65.4765517,11.1915517 65.2774138,11.1915517 Z M57.6703448,9.20017241 L62.6886207,9.20017241 C62.37,8.04517241 61.5336207,7.28844828 60.2193103,7.28844828 C58.905,7.24862069 58.0287931,8.04517241 57.6703448,9.20017241 Z" id="Shape"></path>
                            <path d="M78.5001724,11.7889655 C78.5001724,14.8955172 75.6724138,15.9708621 73.4022414,15.9708621 C69.7381034,15.9708621 68.1051724,14.0591379 67.667069,11.9084483 C67.6272414,11.6694828 67.7865517,11.4305172 68.0653448,11.4305172 L70.0567241,11.4305172 C70.2160345,11.4305172 70.3753448,11.55 70.4151724,11.7093103 C70.8134483,12.8643103 71.6498276,13.4218966 73.4022414,13.4218966 C74.9555172,13.4218966 75.752069,12.8643103 75.752069,11.9084483 C75.752069,10.9127586 74.7962069,10.7932759 72.4463793,10.2755172 C70.0567241,9.79758621 67.9060345,9.00103448 67.9060345,6.37241379 C67.9060345,3.54465517 70.4151724,2.15068966 72.9641379,2.15068966 C76.3096552,2.15068966 77.8231034,3.82344828 78.2612069,5.81482759 C78.3010345,6.0537931 78.1417241,6.29275862 77.862931,6.29275862 L75.8317241,6.29275862 C75.6724138,6.29275862 75.552931,6.21310345 75.4732759,6.0537931 C75.1546552,5.25724138 74.4775862,4.69965517 72.9641379,4.69965517 C71.3312069,4.69965517 70.6541379,5.37672414 70.6541379,6.25293103 C70.6541379,7.04948276 71.3312069,7.2087931 73.0836207,7.60706897 C76.6681034,8.3637931 78.5001724,9.12051724 78.5001724,11.7889655 Z" id="Shape"></path>
                            <path d="M80.5313793,10.4746552 C80.5313793,7.36810345 82.8413793,4.97844828 86.0275862,4.97844828 C88.4172414,4.97844828 90.567931,6.33258621 91.1653448,8.72224138 C91.245,8.9612069 91.0458621,9.20017241 90.767069,9.20017241 L88.7358621,9.20017241 C88.5765517,9.20017241 88.4172414,9.12051724 88.3774138,8.9612069 C87.9791379,7.96551724 87.0631034,7.48758621 86.0275862,7.48758621 C84.3548276,7.48758621 83.2794828,8.72224138 83.3193103,10.4348276 C83.3193103,12.1872414 84.3946552,13.382069 86.0275862,13.382069 C87.0631034,13.382069 88.0189655,12.9041379 88.3774138,11.9084483 C88.4172414,11.7491379 88.5765517,11.6694828 88.7358621,11.6694828 L90.767069,11.6694828 C91.0458621,11.6694828 91.2051724,11.9084483 91.1653448,12.1474138 C90.567931,14.6167241 88.3774138,15.8912069 85.9877586,15.8912069 C82.8413793,15.9708621 80.5313793,13.6210345 80.5313793,10.4746552 Z" id="Shape"></path>
                            <path d="M100.086724,5.41655172 L100.086724,7.44775862 C100.086724,7.68672414 99.8875862,7.84603448 99.6884483,7.84603448 L99.4494828,7.84603448 C97.697069,7.84603448 96.2234483,8.60275862 96.2234483,11.1118966 L96.2234483,15.4132759 C96.2234483,15.6522414 96.0641379,15.8115517 95.8251724,15.8115517 L93.8736207,15.8115517 C93.6346552,15.8115517 93.4753448,15.6522414 93.4753448,15.4132759 L93.4753448,5.61568966 C93.4753448,5.37672414 93.6346552,5.21741379 93.8736207,5.21741379 L95.8251724,5.21741379 C96.0641379,5.21741379 96.2234483,5.37672414 96.2234483,5.61568966 L96.2234483,7.04948276 C96.8606897,5.65551724 98.0156897,4.97844828 99.5291379,4.97844828 L99.7681034,4.97844828 C99.9274138,5.01827586 100.086724,5.17758621 100.086724,5.41655172 Z" id="Shape"></path>
                            <path d="M105.144828,1.99137931 C105.144828,2.94724138 104.427931,3.62431034 103.432241,3.62431034 C102.476379,3.62431034 101.719655,2.94724138 101.719655,1.99137931 C101.719655,1.03551724 102.476379,0.398275862 103.432241,0.398275862 C104.427931,0.358448276 105.144828,1.03551724 105.144828,1.99137931 Z M102.476379,5.21741379 L104.427931,5.21741379 C104.666897,5.21741379 104.826207,5.37672414 104.826207,5.61568966 L104.826207,15.3336207 C104.826207,15.5725862 104.666897,15.7318966 104.427931,15.7318966 L102.476379,15.7318966 C102.237414,15.7318966 102.078103,15.5725862 102.078103,15.3336207 L102.078103,5.61568966 C102.078103,5.41655172 102.237414,5.21741379 102.476379,5.21741379 Z" id="Shape"></path>
                            <path d="M118.447241,10.4746552 C118.447241,13.7006897 116.376207,15.9708621 113.667931,15.9708621 C112.19431,15.9708621 111.079138,15.3336207 110.322414,14.337931 L110.322414,20.1527586 C110.322414,20.3917241 110.163103,20.5510345 109.924138,20.5510345 L107.972586,20.5510345 C107.733621,20.5510345 107.57431,20.3917241 107.57431,20.1527586 L107.57431,5.61568966 C107.57431,5.37672414 107.733621,5.21741379 107.972586,5.21741379 L109.924138,5.21741379 C110.163103,5.21741379 110.322414,5.37672414 110.322414,5.61568966 L110.322414,6.69103448 C111.03931,5.69534483 112.19431,4.97844828 113.667931,4.97844828 C116.336379,5.01827586 118.447241,7.24862069 118.447241,10.4746552 Z M115.65931,10.4746552 C115.65931,8.76206897 114.544138,7.60706897 112.990862,7.60706897 C111.437586,7.60706897 110.322414,8.76206897 110.322414,10.4746552 C110.322414,12.227069 111.477414,13.3422414 113.03069,13.3422414 C114.50431,13.382069 115.65931,12.227069 115.65931,10.4746552 Z" id="Shape"></path>
                            <path d="M129.041379,14.8556897 C129.081207,15.015 129.001552,15.2141379 128.842241,15.2937931 C128.205,15.6522414 127.05,15.9708621 125.974655,15.9708621 C123.863793,15.9708621 122.031724,14.6963793 122.031724,11.6694828 L122.031724,7.8062069 L120.558103,7.8062069 C120.319138,7.8062069 120.159828,7.64689655 120.159828,7.40793103 L120.159828,5.61568966 C120.159828,5.37672414 120.319138,5.21741379 120.558103,5.21741379 L122.031724,5.21741379 L122.031724,2.74810345 C122.031724,2.50913793 122.191034,2.34982759 122.43,2.34982759 L124.381552,2.34982759 C124.620517,2.34982759 124.779828,2.50913793 124.779828,2.74810345 L124.779828,5.21741379 L128.284655,5.21741379 C128.523621,5.21741379 128.682931,5.37672414 128.682931,5.61568966 L128.682931,7.40793103 C128.682931,7.64689655 128.523621,7.8062069 128.284655,7.8062069 L124.779828,7.8062069 L124.779828,11.55 C124.779828,12.7846552 125.377241,13.4617241 126.452586,13.4617241 C126.970345,13.4617241 127.567759,13.3024138 128.244828,13.1032759 C128.483793,13.0236207 128.722759,13.182931 128.762586,13.382069 L129.041379,14.8556897 Z" id="Shape"></path>
                            <g transform="translate(131.032759, 0.000000)" id="Shape">
                                <path d="M3.465,1.99137931 C3.465,2.94724138 2.74810345,3.62431034 1.75241379,3.62431034 C0.796551724,3.62431034 0.0398275862,2.94724138 0.0398275862,1.99137931 C0.0398275862,1.03551724 0.796551724,0.398275862 1.75241379,0.398275862 C2.74810345,0.358448276 3.465,1.03551724 3.465,1.99137931 Z M0.796551724,5.21741379 L2.74810345,5.21741379 C2.98706897,5.21741379 3.14637931,5.37672414 3.14637931,5.61568966 L3.14637931,15.3336207 C3.14637931,15.5725862 2.98706897,15.7318966 2.74810345,15.7318966 L0.796551724,15.7318966 C0.557586207,15.7318966 0.398275862,15.5725862 0.398275862,15.3336207 L0.398275862,5.61568966 C0.398275862,5.41655172 0.557586207,5.21741379 0.796551724,5.21741379 Z"></path>
                                <path d="M15.6124138,9.16034483 L15.6124138,15.3734483 C15.6124138,15.6124138 15.4531034,15.7717241 15.2141379,15.7717241 L13.2625862,15.7717241 C13.0236207,15.7717241 12.8643103,15.6124138 12.8643103,15.3734483 L12.8643103,9.75775862 C12.8643103,8.3637931 12.3465517,7.60706897 10.9127586,7.60706897 C9.35948276,7.60706897 8.52310345,8.52310345 8.52310345,10.2356897 L8.52310345,15.3734483 C8.52310345,15.6124138 8.3637931,15.7717241 8.12482759,15.7717241 L6.17327586,15.7717241 C5.93431034,15.7717241 5.775,15.6124138 5.775,15.3734483 L5.775,5.61568966 C5.775,5.37672414 5.93431034,5.21741379 6.17327586,5.21741379 L8.12482759,5.21741379 C8.3637931,5.21741379 8.52310345,5.37672414 8.52310345,5.61568966 L8.52310345,6.6512069 C9.27982759,5.57586207 10.3551724,4.97844828 11.7889655,4.97844828 C14.1786207,5.01827586 15.6124138,6.57155172 15.6124138,9.16034483 Z"></path>
                                <path d="M28.3572414,5.21741379 C28.5962069,5.21741379 28.7555172,5.37672414 28.7555172,5.61568966 L28.7555172,15.6124138 C28.7555172,18.7189655 26.7243103,20.7501724 23.5381034,20.7501724 C21.1484483,20.7501724 18.9181034,19.635 18.3206897,17.2055172 C18.2410345,16.9665517 18.4401724,16.7275862 18.7189655,16.7275862 L20.7501724,16.7275862 C20.9094828,16.7275862 21.0687931,16.8072414 21.1086207,16.9665517 C21.467069,17.9622414 22.422931,18.3206897 23.4584483,18.3206897 C25.1312069,18.3206897 26.0074138,17.4444828 26.0074138,15.692069 L26.0074138,14.1786207 C25.2506897,15.1743103 24.1753448,15.8115517 22.7017241,15.8115517 C19.9536207,15.8115517 17.9224138,13.5413793 17.9224138,10.395 C17.9224138,7.2087931 19.9934483,4.97844828 22.7017241,4.97844828 C24.1355172,4.97844828 25.2905172,5.65551724 26.0074138,6.6512069 L26.0074138,5.61568966 C26.0074138,5.37672414 26.1667241,5.21741379 26.4056897,5.21741379 L28.3572414,5.21741379 L28.3572414,5.21741379 Z M26.0074138,10.395 C26.0074138,8.76206897 24.8524138,7.56724138 23.2991379,7.56724138 C21.7458621,7.56724138 20.6306897,8.72224138 20.6306897,10.395 C20.6306897,12.027931 21.7856897,13.2227586 23.2991379,13.2227586 C24.8524138,13.2227586 26.0074138,12.0677586 26.0074138,10.395 Z"></path>
                            </g>
                        </g>
                    </g>
                </g>
            </g>
        </g>
    </g>
</svg>