<?xml version="1.0" encoding="UTF-8" standalone="no"?>
<svg width="189px" height="176px" viewBox="0 0 189 176" version="1.1" xmlns="http://www.w3.org/2000/svg" xmlns:xlink="http://www.w3.org/1999/xlink">
    <!-- Generator: Sketch 42 (36781) - http://www.bohemiancoding.com/sketch -->
    <title>logo</title>
    <desc>Created with Sketch.</desc>
    <defs>
        <linearGradient x1="50%" y1="0%" x2="50%" y2="100%" id="linearGradient-1">
            <stop stop-color="#246ADC" offset="0%"></stop>
            <stop stop-color="#073D95" offset="100%"></stop>
        </linearGradient>
    </defs>
    <g id="Symbols" stroke="none" stroke-width="1" fill="none" fill-rule="evenodd">
        <g id="new_course" transform="translate(-130.000000, -24.000000)" fill="url(#linearGradient-1)">
            <g id="New-Course-will-appe-+-nativescriptinglogo3-Mask">
                <g id="logo" transform="translate(130.000000, 24.000000)">
                    <path d="M94.1793421,0.65625 C89.02149,0.65625 83.8648826,1.99052062 79.243477,4.65781719 L29.45726,33.4018896 C20.2144488,38.7389721 14.5213948,48.600377 14.5213948,59.2720526 L14.5213948,68.3007831 C14.5213948,72.5288775 12.729091,76.5603165 9.58758074,79.3919076 L0,88.0385288 L9.58758074,96.68515 C12.729091,99.5167411 14.5213948,103.546935 14.5213948,107.776275 L14.5213948,116.760197 C14.5213948,127.431873 20.2144488,137.293278 29.45726,142.63036 L79.243477,171.374433 C83.8648826,174.041729 89.02149,175.376 94.1793421,175.376 C99.3371942,175.376 104.493802,174.041729 109.115207,171.374433 L158.901424,142.63036 C168.144235,137.293278 173.837289,127.431873 173.837289,116.760197 L173.837289,107.776275 C173.837289,103.546935 175.629593,99.5167411 178.771103,96.68515 L188.358684,88.0385288 L178.771103,79.3919076 C175.629593,76.5603165 173.837289,72.5288775 173.837289,68.3007831 L173.837289,59.2720526 C173.837289,48.600377 168.144235,38.7389721 158.901424,33.4018896 L109.115207,4.65781719 C104.493802,1.99052062 99.3371942,0.65625 94.1793421,0.65625 M94.1793421,10.6134934 C97.6706005,10.6134934 101.113317,11.5357831 104.136585,13.2820346 L153.922802,42.026107 C160.065177,45.5721303 163.880046,52.180006 163.880046,59.2720526 L163.880046,68.3007831 C163.880046,75.3368202 166.877176,82.07414 172.10224,86.7864054 L173.49003,88.0385288 L172.10224,89.2906522 C166.877176,94.0016729 163.880046,100.740237 163.880046,107.776275 L163.880046,116.760197 C163.880046,123.852244 160.065177,130.46012 153.922802,134.006143 L104.136585,162.750215 C101.113317,164.496467 97.6706005,165.418757 94.1793421,165.418757 C90.6880836,165.418757 87.2453667,164.496467 84.2220987,162.750215 L34.4358817,134.006143 C28.2935071,130.46012 24.4786383,123.852244 24.4786383,116.760197 L24.4786383,107.776275 C24.4786383,100.740237 21.481508,94.0016729 16.2564445,89.2906522 L14.8686537,88.0385288 L16.2564445,86.7864054 C21.481508,82.07414 24.4786383,75.3368202 24.4786383,68.3007831 L24.4786383,59.2720526 C24.4786383,52.180006 28.2935071,45.5721303 34.4358817,42.026107 L84.2220987,13.2820346 C87.2453667,11.5357831 90.6880836,10.6134934 94.1793421,10.6134934" id="Fill-1"></path>
                    <path d="M91.3850906,122.372349 C91.0726821,122.60261 90.8648247,122.632482 90.7179553,122.632482 C90.7042641,122.632482 89.3712382,122.56776 89.3712382,121.135161 L89.3712382,112.76112 L123.220887,87.7821298 L89.3712382,62.80314 L89.3712382,54.4278537 C89.3712382,52.9977446 90.7042641,52.9317779 90.7204446,52.9317779 C90.8660693,52.9317779 91.0739268,52.9616496 91.3850906,53.1919109 L138.257569,87.7821298 L91.3850906,122.372349 Z M149.59887,83.775584 L97.2972039,45.1800639 C95.2385438,43.6603396 92.9508672,42.9745345 90.7179553,42.9745345 C84.8780321,42.9745345 79.4139948,47.6693747 79.4139948,54.4278537 L79.4139948,55.4546944 L71.9049886,49.9134885 C65.2884003,45.0307052 56.0094941,49.8288519 56.0094941,58.1344375 L56.0094941,117.429822 C56.0094941,125.734163 65.2884003,130.533554 71.9049886,125.650771 L79.4139948,120.109565 L79.4139948,121.135161 C79.4139948,127.894885 84.8780321,132.589725 90.7179553,132.589725 C92.9508672,132.589725 95.2385438,131.90392 97.2972039,130.384196 L149.59887,91.7874309 C152.294793,89.7984716 152.294793,85.765788 149.59887,83.775584 L149.59887,83.775584 Z" id="Fill-4"></path>
                </g>
            </g>
        </g>
    </g>
</svg>