<?xml version="1.0" encoding="UTF-8" standalone="no"?>
<svg width="43px" height="41px" viewBox="0 0 43 41" version="1.1" xmlns="http://www.w3.org/2000/svg" xmlns:xlink="http://www.w3.org/1999/xlink">
    <!-- Generator: Sketch 42 (36781) - http://www.bohemiancoding.com/sketch -->
    <title>logo</title>
    <desc>Created with Sketch.</desc>
    <defs>
        <polygon id="path-1" points="0 40.2086594 0 0.177944705 42.8113092 0.177944705 42.8113092 40.2086594"></polygon>
    </defs>
    <g id="Symbols" stroke="none" stroke-width="1" fill="none" fill-rule="evenodd">
        <g id="course_base" transform="translate(-305.000000, -144.000000)">
            <g id="logo">
                <g transform="translate(305.000000, 144.000000)">
                    <g id="Group-3" transform="translate(0.000000, 0.107223)">
                        <mask id="mask-2" fill="white">
                            <use xlink:href="#path-1"></use>
                        </mask>
                        <g id="Clip-2"></g>
                        <path d="M21.4057112,0.177944705 C20.2333954,0.177944705 19.0613625,0.483644584 18.0109743,1.09475917 L6.69518487,7.68042427 C4.59440855,8.90322379 3.30044803,11.1626082 3.30044803,13.6076369 L3.30044803,15.6762441 C3.30044803,16.6449591 2.89307961,17.5686176 2.17905329,18.2173744 L-8.48684215e-05,20.1984351 L2.17905329,22.1794957 C2.89307961,22.8282525 3.30044803,23.7516258 3.30044803,24.720626 L3.30044803,26.7789671 C3.30044803,29.2239958 4.59440855,31.4833803 6.69518487,32.7061798 L18.0109743,39.2918449 C19.0613625,39.9029595 20.2333954,40.2086594 21.4057112,40.2086594 C22.578027,40.2086594 23.7500599,39.9029595 24.800448,39.2918449 L36.1162375,32.7061798 C38.2170138,31.4833803 39.5109743,29.2239958 39.5109743,26.7789671 L39.5109743,24.720626 C39.5109743,23.7516258 39.9183428,22.8282525 40.6323691,22.1794957 L42.8115072,20.1984351 L40.6323691,18.2173744 C39.9183428,17.5686176 39.5109743,16.6449591 39.5109743,15.6762441 L39.5109743,13.6076369 C39.5109743,11.1626082 38.2170138,8.90322379 36.1162375,7.68042427 L24.800448,1.09475917 C23.7500599,0.483644584 22.578027,0.177944705 21.4057112,0.177944705 M21.4057112,2.45928708 C22.1992309,2.45928708 22.9817178,2.67059642 23.6688691,3.07068684 L34.9846586,9.65635194 C36.3807441,10.468795 37.2478164,11.9827508 37.2478164,13.6076369 L37.2478164,15.6762441 C37.2478164,17.2882977 37.929027,18.831911 39.1166191,19.9115563 L39.4320467,20.1984351 L39.1166191,20.4853139 C37.929027,21.564674 37.2478164,23.1085724 37.2478164,24.720626 L37.2478164,26.7789671 C37.2478164,28.4038532 36.3807441,29.9178091 34.9846586,30.7302521 L23.6688691,37.3159172 C22.9817178,37.7160077 22.1992309,37.927317 21.4057112,37.927317 C20.6121914,37.927317 19.8297046,37.7160077 19.1425533,37.3159172 L7.82676382,30.7302521 C6.43067829,29.9178091 5.56360592,28.4038532 5.56360592,26.7789671 L5.56360592,24.720626 C5.56360592,23.1085724 4.88239539,21.564674 3.69480329,20.4853139 L3.37937566,20.1984351 L3.69480329,19.9115563 C4.88239539,18.831911 5.56360592,17.2882977 5.56360592,15.6762441 L5.56360592,13.6076369 C5.56360592,11.9827508 6.43067829,10.468795 7.82676382,9.65635194 L19.1425533,3.07068684 C19.8297046,2.67059642 20.6121914,2.45928708 21.4057112,2.45928708" id="Fill-1" fill="#FFFFFF" mask="url(#mask-2)"></path>
                    </g>
                    <path d="M20.7317711,28.2345491 C20.6607645,28.2873052 20.6135211,28.2941492 20.5801395,28.2941492 C20.5770276,28.2941492 20.2740474,28.2793205 20.2740474,27.9510923 L20.2740474,26.0324834 L27.9676526,20.3094509 L20.2740474,14.5864184 L20.2740474,12.6675243 C20.2740474,12.3398665 20.5770276,12.3247526 20.5807053,12.3247526 C20.6138039,12.3247526 20.6610474,12.3315966 20.7317711,12.3843526 L31.3853039,20.3094509 L20.7317711,28.2345491 Z M33.9630408,19.3914957 L22.0755211,10.5487275 C21.6076132,10.2005376 21.0876526,10.0434102 20.5801395,10.0434102 C19.2527974,10.0434102 18.0108895,11.1190631 18.0108895,12.6675243 L18.0108895,12.9027877 L16.3041855,11.6332207 C14.8003171,10.5145074 12.6913368,11.6138292 12.6913368,13.516754 L12.6913368,27.1021478 C12.6913368,29.0047873 14.8003171,30.1043944 16.3041855,28.9856811 L18.0108895,27.7161141 L18.0108895,27.9510923 C18.0108895,29.4998386 19.2527974,30.5754916 20.5801395,30.5754916 C21.0876526,30.5754916 21.6076132,30.4183641 22.0755211,30.0701742 L33.9630408,21.2271208 C34.5757908,20.7714227 34.5757908,19.847479 33.9630408,19.3914957 L33.9630408,19.3914957 Z" id="Fill-4" fill="#FFFFFF"></path>
                </g>
            </g>
        </g>
    </g>
</svg>