<?xml version="1.0" encoding="UTF-8" standalone="no"?>
<svg width="61px" height="56px" viewBox="0 0 61 56" version="1.1" xmlns="http://www.w3.org/2000/svg" xmlns:xlink="http://www.w3.org/1999/xlink">
    <!-- Generator: Sketch 42 (36781) - http://www.bohemiancoding.com/sketch -->
    <title>Group</title>
    <desc>Created with Sketch.</desc>
    <defs>
        <linearGradient x1="0%" y1="50.0270848%" x2="99.9559445%" y2="50.0270848%" id="linearGradient-1">
            <stop stop-color="#00E7B7" offset="0%"></stop>
            <stop stop-color="#17AFD2" offset="100%"></stop>
        </linearGradient>
        <linearGradient x1="0.0809234979%" y1="50.0268056%" x2="100.022744%" y2="50.0268056%" id="linearGradient-2">
            <stop stop-color="#00E7B7" offset="0%"></stop>
            <stop stop-color="#17AFD2" offset="100%"></stop>
        </linearGradient>
    </defs>
    <g id="Symbols" stroke="none" stroke-width="1" fill="none" fill-rule="evenodd">
        <g id="header" transform="translate(-30.000000, -12.000000)" fill-rule="nonzero">
            <g id="Logo3-08">
                <g transform="translate(30.000000, 12.000000)">
                    <g id="Layer_3" transform="translate(0.000000, -0.000000)">
                        <g id="Group">
                            <path d="M30.1494828,3.1862069 C31.2646552,3.1862069 32.3798276,3.465 33.3356897,4.02258621 L49.2667241,13.2227586 C51.2182759,14.337931 52.452931,16.4886207 52.452931,18.7587931 L52.452931,21.6662069 C52.452931,23.9363793 53.4087931,26.087069 55.0815517,27.6005172 L55.5196552,27.9987931 L55.0815517,28.397069 C53.4087931,29.9105172 52.452931,32.0612069 52.452931,34.3313793 L52.452931,37.1989655 C52.452931,39.4691379 51.2182759,41.58 49.2667241,42.735 L33.3356897,51.9351724 C32.3798276,52.4927586 31.2646552,52.7715517 30.1494828,52.7715517 C29.0343103,52.7715517 27.9191379,52.4927586 26.9632759,51.9351724 L11.0322414,42.735 C9.08068966,41.6198276 7.84603448,39.4691379 7.84603448,37.1989655 L7.84603448,34.3313793 C7.84603448,32.0612069 6.89017241,29.9105172 5.21741379,28.397069 L4.77931034,27.9987931 L5.21741379,27.6005172 C6.89017241,26.087069 7.84603448,23.9363793 7.84603448,21.6662069 L7.84603448,18.7587931 C7.84603448,16.4886207 9.08068966,14.3777586 11.0322414,13.2227586 L26.9632759,4.02258621 C27.9191379,3.465 29.0343103,3.1862069 30.1494828,3.1862069 L30.1494828,3.1862069 Z M30.1494828,0 C28.5165517,0 26.8437931,0.438103448 25.3701724,1.27448276 L9.43913793,10.4746552 C6.49189655,12.1872414 4.65982759,15.3336207 4.65982759,18.7587931 L4.65982759,21.6662069 C4.65982759,23.0203448 4.10224138,24.2948276 3.06672414,25.2108621 L0,27.9589655 L3.06672414,30.707069 C4.06241379,31.6231034 4.65982759,32.8975862 4.65982759,34.2517241 L4.65982759,37.1193103 C4.65982759,40.5444828 6.49189655,43.6908621 9.43913793,45.4034483 L25.3701724,54.6036207 C26.8437931,55.44 28.5165517,55.8781034 30.1494828,55.8781034 C31.7824138,55.8781034 33.4551724,55.44 34.9287931,54.6036207 L50.8598276,45.4034483 C53.807069,43.6908621 55.6391379,40.5444828 55.6391379,37.1193103 L55.6391379,34.2517241 C55.6391379,32.8975862 56.1967241,31.6231034 57.2322414,30.707069 L60.2989655,27.9589655 L57.2322414,25.2108621 C56.2365517,24.2948276 55.6391379,23.0203448 55.6391379,21.6662069 L55.6391379,18.7587931 C55.6391379,15.3336207 53.807069,12.1872414 50.8598276,10.4746552 L34.9287931,1.27448276 C33.4551724,0.438103448 31.7824138,0 30.1494828,0 L30.1494828,0 Z" id="Shape" fill="url(#linearGradient-1)"></path>
                            <path d="M47.832931,26.6844828 L31.0655172,14.337931 C30.3884483,13.86 29.6715517,13.6210345 28.9546552,13.6210345 C27.0827586,13.6210345 25.3303448,15.1344828 25.3303448,17.2851724 L25.3303448,17.6037931 L22.9406897,15.8115517 C20.8298276,14.2582759 17.8427586,15.7717241 17.8427586,18.4401724 L17.8427586,37.437931 C17.8427586,40.1063793 20.8298276,41.6198276 22.9406897,40.0665517 L25.3303448,38.2743103 L25.3303448,38.6327586 C25.3303448,40.7834483 27.0827586,42.2968966 28.9546552,42.2968966 C29.6715517,42.2968966 30.3884483,42.057931 31.0655172,41.58 L47.7931034,29.2334483 C48.6693103,28.5962069 48.6693103,27.3217241 47.832931,26.6844828 Z M29.1936207,39.0310345 C29.0741379,39.1106897 29.0343103,39.1106897 28.9944828,39.1106897 C28.9944828,39.1106897 28.5563793,39.0708621 28.5563793,38.6327586 L28.5563793,35.9643103 L39.3894828,27.9589655 L28.5563793,19.9934483 L28.5563793,17.325 C28.5563793,16.8868966 28.9944828,16.847069 28.9944828,16.847069 C29.0343103,16.847069 29.1139655,16.847069 29.1936207,16.9267241 L44.2086207,27.9987931 L29.1936207,39.0310345 Z" id="Shape" fill="url(#linearGradient-2)"></path>
                        </g>
                    </g>
                </g>
            </g>
        </g>
    </g>
</svg>