<?xml version="1.0" encoding="UTF-8"?>
<svg width="732px" height="732px" viewBox="0 0 732 732" version="1.1" xmlns="http://www.w3.org/2000/svg" xmlns:xlink="http://www.w3.org/1999/xlink">
    <!-- Generator: Sketch 43.2 (39069) - http://www.bohemiancoding.com/sketch -->
    <title>twitter icon</title>
    <desc>Created with Sketch.</desc>
    <defs></defs>
    <g id="Page-1" stroke="none" stroke-width="1" fill="none" fill-rule="evenodd">
        <g id="twitter-icon" transform="translate(20.000000, 20.000000)">
            <g>
                <path d="M575.105058,203.923842 C558.246148,211.398474 540.128949,216.451053 521.114125,218.722789 C540.522724,207.091211 555.428872,188.673053 562.448794,166.726053 C544.282374,177.496895 524.164981,185.317789 502.751712,189.532 C485.60463,171.265947 461.171829,159.853579 434.132957,159.853579 C382.215603,159.853579 340.125603,201.932158 340.125603,253.835842 C340.125603,261.202211 340.957004,268.375316 342.559844,275.254947 C264.43144,271.334211 195.162062,233.918105 148.796926,177.054895 C140.704864,190.935842 136.067276,207.080474 136.067276,224.305053 C136.067276,256.912842 152.663074,285.680421 177.887899,302.534579 C162.477899,302.046053 147.982529,297.818421 135.309261,290.778632 C135.300311,291.170526 135.300311,291.564211 135.300311,291.960579 C135.300311,337.497316 167.705253,375.482474 210.708988,384.118474 C202.821868,386.264053 194.515914,387.416474 185.942374,387.416474 C179.883619,387.416474 173.995798,386.825947 168.254747,385.728105 C180.217432,423.065474 214.934008,450.242211 256.07179,450.998263 C223.898638,476.207474 183.364047,491.231895 139.319494,491.231895 C131.731284,491.231895 124.247782,490.787211 116.893152,489.915737 C158.495409,516.584263 207.909611,532.144632 260.997549,532.144632 C433.910117,532.144632 528.466965,388.930368 528.466965,264.731947 C528.466965,260.657316 528.373891,256.604158 528.194008,252.572474 C546.56537,239.323211 562.50249,222.770579 575.105058,203.923842 Z" id="Shape" fill="#3DF4FE" fill-rule="nonzero"></path>
                <circle id="Oval" stroke="#115AC3" stroke-width="20" cx="346" cy="346" r="356"></circle>
            </g>
        </g>
    </g>
</svg>