<?xml version="1.0" encoding="UTF-8"?>
<svg width="732px" height="732px" viewBox="0 0 732 732" version="1.1" xmlns="http://www.w3.org/2000/svg" xmlns:xlink="http://www.w3.org/1999/xlink">
    <!-- Generator: Sketch 43.2 (39069) - http://www.bohemiancoding.com/sketch -->
    <title>github icon</title>
    <desc>Created with Sketch.</desc>
    <defs></defs>
    <g id="Page-1" stroke="none" stroke-width="1" fill="none" fill-rule="evenodd">
        <g id="github-icon" transform="translate(20.000000, 20.000000)">
            <circle id="Oval" stroke="#115AC3" stroke-width="20" cx="346" cy="346" r="356"></circle>
            <path d="M346.004,96.321 C204.635,96.321 90,210.93 90,352.32 C90,465.427 163.352,561.386 265.068,595.238 C277.861,597.607 282.564,589.683 282.564,582.922 C282.564,576.82 282.324,556.651 282.216,535.26 C210.992,550.748 195.964,505.055 195.964,505.055 C184.323,475.467 167.54,467.597 167.54,467.597 C144.314,451.708 169.295,452.035 169.295,452.035 C194.995,453.84 208.533,478.418 208.533,478.418 C231.369,517.553 268.421,506.238 283.035,499.697 C285.329,483.154 291.961,471.857 299.288,465.465 C242.423,458.994 182.65,437.04 182.65,338.949 C182.65,311 192.652,288.162 209.03,270.235 C206.372,263.785 197.603,237.749 211.506,202.485 C211.506,202.485 233.009,195.609 281.926,228.73 C302.344,223.056 324.244,220.212 346.003,220.113 C367.754,220.212 389.671,223.056 410.131,228.73 C458.998,195.608 480.459,202.485 480.459,202.485 C494.395,237.749 485.634,263.785 482.977,270.235 C499.387,288.163 509.324,311.001 509.324,338.949 C509.324,437.276 449.435,458.924 392.429,465.261 C401.611,473.206 409.791,488.784 409.791,512.667 C409.791,546.921 409.493,574.489 409.493,582.921 C409.493,589.735 414.104,597.718 427.079,595.204 C528.74,561.316 602,465.391 602,352.32 C602,210.93 487.383,96.321 346.004,96.321 L346.004,96.321 Z" id="Shape" fill="#CC59FC" fill-rule="nonzero"></path>
        </g>
    </g>
</svg>