
<svg width="256px" height="256px" viewBox="0 0 256 256" version="1.1" xmlns="http://www.w3.org/2000/svg" xmlns:xlink="http://www.w3.org/1999/xlink">
    <!-- Generator: Sketch 43.2 (39069) - http://www.bohemiancoding.com/sketch -->
    <desc>Created with Sketch.</desc>
    <defs></defs>
    <g id="Page-1" stroke="none" stroke-width="1" fill="none" fill-rule="evenodd">
        <g id="nativescript" fill-rule="nonzero" fill="#FFFFFF">
            <path d="M237.248,18.752 C249.288,30.792 255.539,45.874 255.996,63.999 L255.996,192 C255.539,210.12 249.289,225.207 237.248,237.247 C225.208,249.287 210.121,255.538 191.997,255.999 L63.999,255.999 C45.874,255.539 30.792,249.288 18.752,237.247 C6.712,225.208 0.46,210.121 0,192.001 L0,64 C0.46,45.875 6.711,30.793 18.752,18.753 C30.792,6.712 45.874,0.46 63.999,0 L191.997,0 C210.121,0.46 225.208,6.711 237.248,18.752 L237.248,18.752 Z M219.593,121.752 C215.57,117.75 213.479,112.728 213.313,106.686 L213.313,64 C213.185,57.958 211.111,52.928 207.092,48.909 C203.072,44.886 198.038,42.816 191.997,42.689 L170.685,42.689 L170.685,149.315 L85.315,42.687 L63.999,42.687 C57.957,42.815 52.927,44.885 48.908,48.908 C44.885,52.928 42.815,57.958 42.688,63.998 L42.688,106.686 C42.521,112.728 40.43,117.75 36.407,121.752 C32.387,125.749 27.357,127.832 21.316,127.998 C27.357,128.168 32.388,130.251 36.406,134.248 C40.43,138.25 42.521,143.272 42.687,149.314 L42.687,192 C42.815,198.037 44.885,203.072 48.908,207.091 C52.928,211.111 57.958,213.184 63.998,213.311 L85.315,213.311 L85.315,106.687 L170.685,213.314 L191.997,213.314 C198.038,213.186 203.073,211.112 207.092,207.093 C211.112,203.073 213.185,198.039 213.312,192.003 L213.312,149.315 C213.479,143.273 215.57,138.251 219.593,134.249 C223.613,130.252 228.643,128.169 234.684,127.999 C228.643,127.832 223.612,125.75 219.594,121.753 L219.593,121.752 Z" id="Shape"></path>
        </g>
    </g>
</svg>