
<svg width="234px" height="265px" viewBox="0 0 234 265" version="1.1" xmlns="http://www.w3.org/2000/svg" xmlns:xlink="http://www.w3.org/1999/xlink">
    <!-- Generator: Sketch 43.2 (39069) - http://www.bohemiancoding.com/sketch -->
    <desc>Created with Sketch.</desc>
    <defs></defs>
    <g id="Page-1" stroke="none" stroke-width="1" fill="none" fill-rule="evenodd">
        <polygon id="Polygon" fill="#E43037" points="116.92144 0 116.92144 264.159107 15.5983151 204.922134 1.42108547e-14 42.3797041"></polygon>
        <polygon id="Polygon-Copy" fill="#B72E32" transform="translate(175.460720, 132.079554) scale(-1, 1) translate(-175.460720, -132.079554) " points="233.92144 0 233.92144 264.159107 132.598315 204.922134 117 42.3797041"></polygon>
        <path d="M172.477971,66.5225372 C178.592057,72.6366236 181.766405,80.2954816 181.998477,89.4996191 L181.998477,154.500381 C181.766405,163.701979 178.592565,171.363376 172.477971,177.477463 C166.363884,183.591549 158.702487,186.765898 149.498857,187 L84.4996191,187 C75.2954816,186.766405 67.6366236,183.592057 61.5225372,177.477463 C55.4084508,171.363884 52.2335947,163.702487 52,154.500889 L52,89.500127 C52.2335947,80.2959894 55.407943,72.6371314 61.5225372,66.523045 C67.6366236,60.4084508 75.2954816,57.2335947 84.4996191,57 L149.498857,57 C158.702487,57.2335947 166.363884,60.407943 172.477971,66.5225372 L172.477971,66.5225372 Z M163.512506,118.827429 C161.469568,116.795155 160.407728,114.244911 160.323431,111.176696 L160.323431,89.500127 C160.258431,86.4319118 159.205223,83.877605 157.164317,81.8366986 C155.122903,79.7937609 152.566565,78.7425849 149.498857,78.6780925 L138.676315,78.6780925 L138.676315,132.82432 L95.3241927,78.6770769 L84.4996191,78.6770769 C81.431404,78.7420771 78.8770972,79.7932531 76.8361908,81.8361908 C74.7932531,83.877605 73.7420771,86.4319118 73.6775847,89.4991113 L73.6775847,111.176696 C73.5927797,114.244911 72.5309396,116.795155 70.4880019,118.827429 C68.4465877,120.857164 65.8922808,121.914941 62.8245735,121.999238 C65.8922808,122.085567 68.4470955,123.143344 70.4874941,125.173079 C72.5309396,127.205352 73.5927797,129.755597 73.6770769,132.823812 L73.6770769,154.500381 C73.7420771,157.566057 74.7932531,160.122903 76.8361908,162.163809 C78.877605,164.205223 81.4319118,165.257923 84.4991113,165.322415 L95.3241927,165.322415 L95.3241927,111.177204 L138.676315,165.323939 L149.498857,165.323939 C152.566565,165.258939 155.123411,164.205731 157.164317,162.164825 C159.205731,160.123411 160.258431,157.567073 160.322923,154.501904 L160.322923,132.82432 C160.407728,129.756105 161.469568,127.20586 163.512506,125.173587 C165.55392,123.143852 168.108227,122.086075 171.175934,121.999746 C168.108227,121.914941 165.553412,120.857671 163.513014,118.827937 L163.512506,118.827429 Z" id="Shape" fill="#FFFFFF" fill-rule="nonzero"></path>
    </g>
</svg>